<?xml version="1.0" encoding="UTF-8" standalone="no"?>
<!-- Created with Inkscape (http://www.inkscape.org/) -->

<svg
   xmlns:dc="http://purl.org/dc/elements/1.1/"
   xmlns:cc="http://creativecommons.org/ns#"
   xmlns:rdf="http://www.w3.org/1999/02/22-rdf-syntax-ns#"
   xmlns:svg="http://www.w3.org/2000/svg"
   xmlns="http://www.w3.org/2000/svg"
   xmlns:xlink="http://www.w3.org/1999/xlink"
   xmlns:sodipodi="http://sodipodi.sourceforge.net/DTD/sodipodi-0.dtd"
   xmlns:inkscape="http://www.inkscape.org/namespaces/inkscape"
   width="319.17307"
   height="313.17737"
   id="svg7075"
   version="1.1"
   inkscape:version="0.91 r13725"
   sodipodi:docname="ebb.svg">
  <defs
     id="defs7077">
    <inkscape:perspective
       sodipodi:type="inkscape:persp3d"
       inkscape:vp_x="0 : 526.18109 : 1"
       inkscape:vp_y="0 : 1000 : 0"
       inkscape:vp_z="744.09448 : 526.18109 : 1"
       inkscape:persp3d-origin="372.04724 : 350.78739 : 1"
       id="perspective7083" />
    <inkscape:perspective
       id="perspective7004"
       inkscape:persp3d-origin="0.5 : 0.33333333 : 1"
       inkscape:vp_z="1 : 0.5 : 1"
       inkscape:vp_y="0 : 1000 : 0"
       inkscape:vp_x="0 : 0.5 : 1"
       sodipodi:type="inkscape:persp3d" />
    <radialGradient
       inkscape:collect="always"
       xlink:href="#linearGradient9498"
       id="radialGradient6365"
       gradientUnits="userSpaceOnUse"
       gradientTransform="matrix(1,0,0,0.84931512,0,14.207706)"
       cx="103.59114"
       cy="94.287537"
       fx="103.59114"
       fy="94.287537"
       r="25.809397" />
    <linearGradient
       inkscape:collect="always"
       id="linearGradient9498">
      <stop
         style="stop-color:#ffffff;stop-opacity:1;"
         offset="0"
         id="stop9500" />
      <stop
         style="stop-color:#ffffff;stop-opacity:0;"
         offset="1"
         id="stop9502" />
    </linearGradient>
    <filter
       color-interpolation-filters="sRGB"
       inkscape:collect="always"
       id="filter9518">
      <feGaussianBlur
         inkscape:collect="always"
         stdDeviation="0.71376063"
         id="feGaussianBlur9520" />
    </filter>
    <radialGradient
       inkscape:collect="always"
       xlink:href="#linearGradient9498"
       id="radialGradient6367"
       gradientUnits="userSpaceOnUse"
       gradientTransform="matrix(1,0,0,0.84931512,0,14.207706)"
       cx="103.59114"
       cy="94.287537"
       fx="103.59114"
       fy="94.287537"
       r="25.809397" />
    <linearGradient
       inkscape:collect="always"
       xlink:href="#linearGradient9356"
       id="linearGradient6285"
       gradientUnits="userSpaceOnUse"
       gradientTransform="matrix(4,0,0,4,-715.14493,-1918.8008)"
       x1="264.28571"
       y1="573.26208"
       x2="264.28571"
       y2="649.31946" />
    <linearGradient
       inkscape:collect="always"
       id="linearGradient9356">
      <stop
         style="stop-color:#f9f8f8;stop-opacity:1"
         offset="0"
         id="stop9358" />
      <stop
         id="stop9364"
         offset="0.07006675"
         style="stop-color:#ececec;stop-opacity:1" />
      <stop
         style="stop-color:#e8e7e7;stop-opacity:1"
         offset="0.93328261"
         id="stop9366" />
      <stop
         style="stop-color:#b4b3b4;stop-opacity:1"
         offset="1"
         id="stop9360" />
    </linearGradient>
    <linearGradient
       inkscape:collect="always"
       xlink:href="#linearGradient9376"
       id="linearGradient6287"
       gradientUnits="userSpaceOnUse"
       gradientTransform="matrix(4,0,0,4,-715.14493,-1918.8008)"
       x1="248.757"
       y1="634.69067"
       x2="249.81441"
       y2="664.505" />
    <linearGradient
       inkscape:collect="always"
       id="linearGradient9376">
      <stop
         style="stop-color:#dad9d9;stop-opacity:1;"
         offset="0"
         id="stop9378" />
      <stop
         id="stop9384"
         offset="0.27966022"
         style="stop-color:#dad9d9;stop-opacity:1" />
      <stop
         style="stop-color:#000000;stop-opacity:1"
         offset="1"
         id="stop9380" />
    </linearGradient>
    <filter
       color-interpolation-filters="sRGB"
       inkscape:collect="always"
       id="filter10343">
      <feGaussianBlur
         inkscape:collect="always"
         stdDeviation="0.74285713"
         id="feGaussianBlur10345" />
    </filter>
  </defs>
  <sodipodi:namedview
     id="base"
     pagecolor="#ffffff"
     bordercolor="#666666"
     borderopacity="1.0"
     inkscape:pageopacity="0.0"
     inkscape:pageshadow="2"
     inkscape:zoom="0.98994949"
     inkscape:cx="143.6737"
     inkscape:cy="171.41679"
     inkscape:document-units="px"
     inkscape:current-layer="svg7075"
     showgrid="false"
     inkscape:window-width="1920"
     inkscape:window-height="1056"
     inkscape:window-x="0"
     inkscape:window-y="24"
     inkscape:window-maximized="1" />
  <metadata
     id="metadata7080">
    <rdf:RDF>
      <cc:Work
         rdf:about="">
        <dc:format>image/svg+xml</dc:format>
        <dc:type
           rdf:resource="http://purl.org/dc/dcmitype/StillImage" />
        <dc:title></dc:title>
      </cc:Work>
    </rdf:RDF>
  </metadata>
  <g
     inkscape:label="Capa 1"
     inkscape:groupmode="layer"
     id="layer1"
     transform="translate(-190.41347,-375.77354)">
    <rect
       ry="9.2857141"
       y="783.7193"
       x="96.107147"
       height="74.285713"
       width="74.285713"
       id="rect10647"
       style="opacity:0.72244903;fill:#888a85;fill-opacity:1;stroke:#888a85;stroke-width:0.44291338;stroke-miterlimit:4;stroke-opacity:1;stroke-dasharray:none;filter:url(#filter10343)"
       transform="matrix(4,0,0,4,-180.00217,-2751.0864)" />
    <rect
       style="fill:url(#linearGradient6285);fill-opacity:1;stroke:url(#linearGradient6287);stroke-width:1.77165353;stroke-miterlimit:4;stroke-opacity:1;stroke-dasharray:none"
       id="rect10649"
       width="297.14285"
       height="297.14285"
       x="193.42641"
       y="377.79068"
       ry="37.142857" />
    <path
       transform="matrix(3.4288818,0,0,2.1937586,-70.417176,221.88645)"
       d="M 129.40054,94.287537 A 25.809397,21.920311 0 0 1 103.59114,116.20785 25.809397,21.920311 0 0 1 77.781744,94.287537 25.809397,21.920311 0 0 1 103.59114,72.367226 25.809397,21.920311 0 0 1 129.40054,94.287537 Z"
       sodipodi:ry="21.920311"
       sodipodi:rx="25.809397"
       sodipodi:cy="94.287537"
       sodipodi:cx="103.59114"
       id="path10651"
       style="opacity:0.76326533;fill:url(#radialGradient6367);fill-opacity:1;stroke:none;filter:url(#filter9518)"
       sodipodi:type="arc" />
    <path
       sodipodi:type="arc"
       style="opacity:0.76326533;fill:url(#radialGradient6365);fill-opacity:1;stroke:none;filter:url(#filter9518)"
       id="path10653"
       sodipodi:cx="103.59114"
       sodipodi:cy="94.287537"
       sodipodi:rx="25.809397"
       sodipodi:ry="21.920311"
       d="M 129.40054,94.287537 A 25.809397,21.920311 0 0 1 103.59114,116.20785 25.809397,21.920311 0 0 1 77.781744,94.287537 25.809397,21.920311 0 0 1 103.59114,72.367226 25.809397,21.920311 0 0 1 129.40054,94.287537 Z"
       transform="matrix(1.4249037,0,0,1.7581474,299.81175,468.41561)" />
  </g>
  <path
     style="fill:#7030a0;fill-opacity:1"
     id="path3386"
     d="m 140.40711,34.801926 6.04627,0 c 3.99944,0.156363 7.99824,0.535737 11.94513,1.225274 2.42428,0.412056 4.81971,0.990088 7.25424,1.343187 7.65796,1.105438 14.91669,4.055196 21.72426,7.64002 2.3839,1.24193 4.73448,2.5409 7.0825,3.845 1.80266,1.0138 3.69184,1.89879 5.3516,3.14778 2.71906,2.05899 5.36826,4.2154 7.91365,6.48716 3.36694,2.94399 6.70761,5.9354 9.74708,9.22351 9.65993,10.43214 16.47199,23.31674 20.40799,36.939583 1.23937,4.24937 2.23267,8.57115 2.98052,12.93459 1.2932,7.45866 0.90486,15.08586 0.0135,22.56439 -0.42552,3.74118 -1.07084,7.45353 -1.76678,11.15307 -1.87508,11.45874 -6.75695,22.22923 -12.95445,31.97183 -3.33362,5.18947 -6.97356,10.22578 -11.33315,14.61421 -4.50185,4.6249 -9.50676,8.7352 -14.72315,12.52894 -5.30931,3.88025 -11.15307,7.03571 -17.33519,9.2844 -4.81971,1.71487 -9.7426,3.14393 -14.73341,4.25898 -8.37121,1.81099 -17.03464,2.37941 -25.55388,1.39573 -14.3502,-1.69564 -28.56709,-6.6275 -40.01687,-15.6043 -1.55915,-1.33934 -3.488053,-2.13013 -5.090778,-3.40795 -4.302557,-3.23429 -7.515056,-7.6099 -11.151146,-11.52027 -2.302516,-2.2506 -3.922543,-5.06899 -5.440037,-7.88033 -2.217926,-4.23078 -3.968042,-8.67881 -5.911691,-13.03712 -2.433245,-5.49707 -2.935018,-11.57602 -3.373989,-17.50052 -0.217884,-3.99496 -0.704276,-7.99697 -0.394113,-12.0009 0.417824,-5.60857 1.645661,-11.12166 3.084333,-16.54632 0.619045,-2.16794 1.171444,-4.36087 1.962873,-6.4737 2.734437,-6.86013 6.074462,-13.51518 10.373175,-19.53774 3.928951,-5.490663 8.385949,-10.671163 13.750363,-14.814153 2.64472,-2.06541 5.45606,-3.9187 8.38211,-5.56115 4.06224,-2.29419 8.48912,-3.87 12.9788,-5.08886 5.99244,-1.60465 12.25466,-2.08656 18.43487,-1.62195 2.84658,0.19032 5.68163,0.55047 8.50771,0.94843 8.2597,1.00226 16.44123,2.97988 24.08765,6.29299 6.97163,3.04652 13.48699,7.33434 18.5688,13.04352 5.28752,5.857873 8.93707,13.087113 10.94095,20.697013 1.02534,4.05391 1.93788,8.15461 2.30124,12.32707 0.1115,2.04042 0.0968,4.0866 0.0372,6.12894 -0.26146,4.86521 -1.5835,9.5811 -2.9222,14.23996 -1.26564,4.2295 -2.91066,8.35071 -4.99658,12.24441 -1.78792,3.31952 -3.7367,6.60379 -6.34169,9.35361 -2.57358,2.70752 -5.5541,5.00683 -8.73136,6.96137 -2.39351,1.44444 -4.79279,2.90619 -7.37855,3.98663 -8.10399,3.56111 -16.88853,6.03794 -25.80702,5.6874 -3.13367,-0.0724 -6.20839,-0.75106 -9.22736,-1.538 -3.17021,-0.75619 -6.29492,-1.76998 -9.20622,-3.25287 -6.38655,-3.19776 -11.70932,-8.17063 -16.20348,-13.65809 -1.42394,-1.6745 -2.33969,-3.68992 -3.3317,-5.63101 -1.85585,-3.68735 -3.24582,-7.64258 -3.7508,-11.75032 -0.56777,-4.63259 -0.28773,-9.39591 1.07917,-13.86957 1.06442,-3.48229 2.83056,-6.71401 4.92673,-9.67915 1.85393,-2.6319 4.34293,-4.72871 6.93574,-6.60251 3.35028,-2.35954 7.0716,-4.21283 11.00055,-5.383 3.84949,-1.11505 8.13988,-1.38676 11.89324,0.20892 -2.24869,1.33549 -4.69923,2.30956 -6.88192,3.76361 -5.97257,3.75208 -10.26808,9.7913 -12.62955,16.37394 -1.80331,5.02542 -2.23715,10.58978 -0.92921,15.7895 0.42551,1.77511 1.08173,3.48357 1.75332,5.17665 1.01444,2.68574 2.81839,4.96647 4.5826,7.19593 2.63832,3.2016 5.80532,6.00012 9.44141,8.01811 5.11321,2.87606 11.04093,4.093 16.87508,3.9815 2.70175,-0.0916 5.44708,-0.0686 8.06809,-0.82604 6.47627,-1.74499 12.00217,-5.88285 16.67513,-10.5635 5.02606,-4.97543 8.36416,-11.49592 9.97458,-18.34771 1.25603,-5.34455 1.85585,-10.9307 0.95484,-16.38227 -0.678,-4.17567 -1.46302,-8.38339 -3.13752,-12.29119 -2.41466,-5.94886 -6.3795,-11.19857 -11.20113,-15.40884 -4.35703,-3.811043 -9.30555,-6.890253 -14.42453,-9.563803 -3.58995,-1.51429 -7.47019,-2.23011 -11.32353,-2.67741 -6.22121,-0.69338 -12.50587,-0.23775 -18.68479,0.61969 -5.23369,0.99393 -10.07839,3.34195 -14.78211,5.75597 -3.00423,1.51044 -5.75405,3.481 -8.33789,5.625873 -2.52104,2.1154 -4.91711,4.38074 -7.13953,6.81271 -4.260897,4.42303 -7.440073,9.78553 -9.919459,15.37744 -1.908402,4.56722 -3.449607,9.30362 -4.395478,14.16563 -0.826675,4.69218 -1.405989,9.4446 -1.338701,14.21882 0.05896,6.20327 1.081727,12.41999 3.216344,18.2535 2.189729,6.3308 5.015164,12.54496 9.269659,17.7716 2.189085,2.6774 4.725505,5.09783 7.625275,6.99278 6.21865,4.05776 12.77694,7.7073 19.87546,9.97906 5.23753,1.73858 10.68206,2.84017 16.17529,3.37463 4.63579,0.3877 9.29337,0.56073 13.9471,0.48575 7.13953,-0.17751 14.21562,-1.8424 20.76237,-4.67232 7.06647,-3.17533 13.7901,-7.15811 19.81009,-12.04575 4.55441,-3.63481 8.50771,-7.95915 12.12393,-12.51099 4.51596,-5.77391 8.50259,-12.02589 11.24728,-18.84179 2.98308,-7.07545 5.00683,-14.54116 6.17122,-22.12735 0.41078,-2.62357 0.70492,-5.26445 1.03111,-7.89763 0.6953,-6.0405 0.44153,-12.15854 -0.41847,-18.16892 -0.55176,-3.65211 -1.12274,-7.30678 -1.89494,-10.92044 -1.66361,-7.418293 -4.70565,-14.548853 -9.07998,-20.775833 -4.00328,-5.71367 -9.06843,-10.6404 -14.72059,-14.70777 -6.19301,-4.47943 -13.04032,-7.98287 -20.10231,-10.87047 -6.88191,-2.83633 -14.07975,-4.98248 -21.47177,-5.9527 -6.87166,-0.90998 -13.86379,-0.81386 -20.72136,0.17046 -7.32537,1.06635 -14.55462,2.81006 -21.54611,5.24779 -11.19793,3.91165 -21.658897,9.74131 -31.233592,16.70653 -2.628059,1.93276 -5.250991,3.88281 -7.666934,6.07767 -5.58038,5.09783 -10.414188,10.98773 -14.509115,17.33263 -2.832485,4.42175 -5.353524,9.079333 -7.071599,14.057323 -4.234629,11.93425 -7.263209,24.43947 -7.440079,37.15361 0.107019,5.40736 0.874097,10.77883 1.849446,16.08813 0.773486,3.8841 1.471995,7.78998 2.631263,11.58243 2.326226,8.03029 5.060663,16.05737 9.518302,23.18664 1.851368,2.89273 4.039175,5.55347 6.055237,8.33341 4.364078,5.80659 8.974876,11.49719 14.498221,16.24833 1.428418,1.22143 2.949117,2.33584 4.574912,3.2753 3.938563,2.25061 7.0261,5.64959 10.689746,8.27701 2.269832,1.70334 4.938902,2.737 7.339462,4.22438 5.64895,3.34707 11.7702,6.20199 18.3663,6.9351 11.19088,1.42906 22.52467,2.69983 33.80078,1.5207 12.83013,-1.58863 25.25653,-5.80019 36.70631,-11.7452 7.26385,-4.09301 14.20664,-8.75379 20.75275,-13.91827 2.41018,-1.93532 4.84663,-3.85269 7.0402,-6.03537 5.35737,-5.37083 10.37702,-11.09924 14.75199,-17.29995 4.69988,-6.59481 8.23792,-13.93172 11.33507,-21.3891 3.32144,-8.01555 5.56756,-16.44123 7.01456,-24.9861 2.07054,-11.6965 2.71009,-23.61729 2.29419,-35.47719 -0.0718,-1.05161 -0.0884,-2.10643 -0.0263,-3.1606 0.77157,1.47456 1.22272,3.07665 1.81869,4.62234 2.06925,5.72777 3.89178,11.57025 4.87482,17.59024 0.50113,2.83248 0.74785,5.69765 0.95484,8.56346 l 0,6.25582 c -0.28965,5.33558 -1.15606,10.61412 -2.14807,15.86063 -1.72448,8.40197 -4.62041,16.53159 -8.19626,24.31515 -3.52395,7.53877 -7.62016,14.81415 -12.32259,21.68069 -4.0379,5.81492 -8.54937,11.30943 -13.5389,16.33869 -2.92412,2.90874 -5.99179,5.68227 -9.31708,8.12705 -2.36724,1.76486 -4.9216,3.25544 -7.48173,4.72102 -7.22796,4.10262 -14.91412,7.38433 -22.85597,9.83424 -4.39804,1.36946 -8.86594,2.49797 -13.32293,3.65852 -6.05076,1.54697 -12.19827,2.74084 -18.40154,3.46947 -3.92767,0.51459 -7.88098,0.72478 -11.83171,0.94523 l -7.12992,0 c -2.828,-0.17879 -5.6701,-0.20763 -8.47631,-0.62802 -5.929,-0.89268 -11.8644,-1.78985 -17.69214,-3.21698 -5.15294,-1.24194 -10.23411,-2.90875 -14.956415,-5.33943 -1.577092,-0.79591 -3.015763,-1.84368 -4.640277,-2.55052 -5.449008,-2.41081 -10.319344,-5.89118 -15.315924,-9.08958 -1.417524,-0.90742 -2.902336,-1.71615 -4.221171,-2.76263 -5.551542,-4.55697 -9.89319,-10.32704 -14.690471,-15.62417 -0.95292,-1.07788 -2.0449,-2.03016 -2.897209,-3.19648 -8.278349,-11.7766 -14.516224,-25.08607 -17.494819,-39.20876 -1.064425,-4.47302 -1.400221,-9.0678 -2.101934,-13.60426 -0.758747,-5.1318 -1.486734,-10.27962 -1.666168,-15.46652 l 0,-5.39454 c 0.167899,-2.40313 0.385782,-4.80369 0.731191,-7.18695 0.847182,-7.22668 1.90584,-14.44503 3.704019,-21.50061 2.20639,-8.79288 5.534239,-17.287773 9.714397,-25.326393 2.069252,-4.21796 4.68129,-8.14948 7.581703,-11.83812 6.476265,-8.17319 14.125256,-15.49792 22.950176,-21.10008 4.034689,-2.5973 8.280212,-4.83766 12.489848,-7.13184 1.8142,-0.97856 3.670695,-1.88341 5.55795,-2.7197 6.879344,-3.110607 14.208564,-5.040157 21.529444,-6.80245 2.97988,-0.693382 5.90913,-1.612337 8.92041,-2.165377 3.98598,-0.739522 8.0226,-1.156705 12.06498,-1.432904 z"
     inkscape:connector-curvature="0" />
</svg>
